{
  "accessors": [
    {
      "bufferView": 2,
      "componentType": 5126,
      "count": 246,
      "max": [
        1.0,
        0.33333298563957214,
        0.33333298563957214
      ],
      "min": [
        0.33333298563957214,
        -0.33333298563957214,
        -0.33333298563957214
      ],
      "type": "VEC3"
    },
    {
      "bufferView": 2,
      "byteOffset": 2952,
      "componentType": 5126,
      "count": 246,
      "max": [
        1.0,
        1.0,
        1.0
      ],
      "min": [
        -1.0,
        -1.0,
        -1.0
      ],
      "type": "VEC3"
    },
    {
      "bufferView": 3,
      "componentType": 5126,
      "count": 246,
      "max": [
        1.0,
        0.706732988357544,
        0.9999995231628418,
        1.0
      ],
      "min": [
        -1.0,
        -0.7067356705665588,
        -0.9999999403953552,
        1.0
      ],
      "type": "VEC4"
    },
    {
      "bufferView": 1,
      "componentType": 5126,
      "count": 246,
      "max": [
        0.9979720115661621,
        0.927836000919342
      ],
      "min": [
        0.003244949970394373,
        0.07055439800024033
      ],
      "type": "VEC2"
    },
    {
      "bufferView": 0,
      "componentType": 5125,
      "count": 1008,
      "type": "SCALAR"
    },
    {
      "bufferView": 2,
      "byteOffset": 5904,
      "componentType": 5126,
      "count": 96,
      "max": [
        -0.33333298563957214,
        0.33333298563957214,
        0.33333298563957214
      ],
      "min": [
        -1.0,
        -0.33333298563957214,
        -0.33333298563957214
      ],
      "type": "VEC3"
    },
    {
      "bufferView": 2,
      "byteOffset": 7056,
      "componentType": 5126,
      "count": 96,
      "max": [
        0.9740890264511108,
        0.9740890264511108,
        0.9740890264511108
      ],
      "min": [
        -0.9740890264511108,
        -0.9740890264511108,
        -0.9740890264511108
      ],
      "type": "VEC3"
    },
    {
      "bufferView": 3,
      "byteOffset": 3936,
      "componentType": 5126,
      "count": 96,
      "max": [
        0.6961610317230225,
        0.6961607336997986,
        0.9869447350502014,
        1.0
      ],
      "min": [
        -0.6961609125137329,
        -0.9868655204772949,
        -0.9869447946548462,
        1.0
      ],
      "type": "VEC4"
    },
    {
      "bufferView": 1,
      "byteOffset": 1968,
      "componentType": 5126,
      "count": 96,
      "max": [
        0.9994999766349792,
        0.9994999766349792
      ],
      "min": [
        0.0005000000237487257,
        0.0005000000237487257
      ],
      "type": "VEC2"
    },
    {
      "bufferView": 0,
      "byteOffset": 4032,
      "componentType": 5125,
      "count": 324,
      "type": "SCALAR"
    }
  ],
  "asset": {
    "extras": {
      "author": "Sirenko (https://sketchfab.com/sirenko)",
      "license": "CC-BY-4.0 (http://creativecommons.org/licenses/by/4.0/)",
      "source": "https://sketchfab.com/3d-models/dice-c59a1819d5024611a2deae8c75fda74e",
      "title": "Dice"
    },
    "generator": "Sketchfab-12.68.0",
    "version": "2.0"
  },
  "bufferViews": [
    {
      "buffer": 0,
      "byteLength": 5328,
      "name": "floatBufferViews",
      "target": 34963
    },
    {
      "buffer": 0,
      "byteLength": 2736,
      "byteOffset": 5328,
      "byteStride": 8,
      "name": "floatBufferViews",
      "target": 34962
    },
    {
      "buffer": 0,
      "byteLength": 8208,
      "byteOffset": 8064,
      "byteStride": 12,
      "name": "floatBufferViews",
      "target": 34962
    },
    {
      "buffer": 0,
      "byteLength": 5472,
      "byteOffset": 16272,
      "byteStride": 16,
      "name": "floatBufferViews",
      "target": 34962
    }
  ],
  "buffers": [
    {
      "byteLength": 21744,
      "uri": "scene.bin"
    }
  ],
  "images": [
    {
      "uri": "textures/Dice_1_baseColor.jpeg"
    },
    {
      "uri": "textures/Dice_1_metallicRoughness.png"
    },
    {
      "uri": "textures/Dice_1_normal.png"
    },
    {
      "uri": "textures/Dice_2_baseColor.jpeg"
    },
    {
      "uri": "textures/Dice_2_metallicRoughness.png"
    },
    {
      "uri": "textures/Dice_2_normal.png"
    }
  ],
  "materials": [
    {
      "doubleSided": true,
      "name": "Dice_1",
      "normalTexture": {
        "index": 2
      },
      "occlusionTexture": {
        "index": 1
      },
      "pbrMetallicRoughness": {
        "baseColorTexture": {
          "index": 0
        },
        "metallicRoughnessTexture": {
          "index": 1
        }
      }
    },
    {
      "doubleSided": true,
      "name": "Dice_2",
      "normalTexture": {
        "index": 5
      },
      "occlusionTexture": {
        "index": 4
      },
      "pbrMetallicRoughness": {
        "baseColorTexture": {
          "index": 3
        },
        "metallicRoughnessTexture": {
          "index": 4
        }
      }
    }
  ],
  "meshes": [
    {
      "name": "defaultMaterial",
      "primitives": [
        {
          "attributes": {
            "NORMAL": 1,
            "POSITION": 0,
            "TANGENT": 2,
            "TEXCOORD_0": 3
          },
          "indices": 4,
          "material": 1,
          "mode": 4
        }
      ]
    },
    {
      "name": "defaultMaterial",
      "primitives": [
        {
          "attributes": {
            "NORMAL": 6,
            "POSITION": 5,
            "TANGENT": 7,
            "TEXCOORD_0": 8
          },
          "indices": 9,
          "material": 0,
          "mode": 4
        }
      ]
    }
  ],
  "nodes": [
    {
      "children": [
        1
      ],
      "matrix": [
        1.0,
        0.0,
        0.0,
        0.0,
        0.0,
        2.220446049250313e-16,
        -1.0,
        0.0,
        0.0,
        1.0,
        2.220446049250313e-16,
        0.0,
        0.0,
        0.0,
        0.0,
        1.0
      ],
      "name": "Sketchfab_model"
    },
    {
      "children": [
        2,
        4
      ],
      "matrix": [
        1.0,
        0.0,
        0.0,
        0.0,
        0.0,
        -4.371139006309477e-08,
        0.999999999999999,
        0.0,
        0.0,
        -0.999999999999999,
        -4.371139006309477e-08,
        0.0,
        0.0,
        0.0,
        0.0,
        1.0
      ],
      "name": "Collada visual scene group"
    },
    {
      "children": [
        3
      ],
      "name": "Dice_2_low"
    },
    {
      "mesh": 0,
      "name": "defaultMaterial"
    },
    {
      "children": [
        5
      ],
      "name": "Dice_Smooth_low"
    },
    {
      "mesh": 1,
      "name": "defaultMaterial"
    }
  ],
  "samplers": [
    {
      "magFilter": 9729,
      "minFilter": 9987,
      "wrapS": 10497,
      "wrapT": 10497
    }
  ],
  "scene": 0,
  "scenes": [
    {
      "name": "Sketchfab_Scene",
      "nodes": [
        0
      ]
    }
  ],
  "textures": [
    {
      "sampler": 0,
      "source": 0
    },
    {
      "sampler": 0,
      "source": 1
    },
    {
      "sampler": 0,
      "source": 2
    },
    {
      "sampler": 0,
      "source": 3
    },
    {
      "sampler": 0,
      "source": 4
    },
    {
      "sampler": 0,
      "source": 5
    }
  ]
}
